<?xml version="1.0" standalone="no"?><!DOCTYPE svg PUBLIC "-//W3C//DTD SVG 1.1//EN" "http://www.w3.org/Graphics/SVG/1.1/DTD/svg11.dtd"><svg t="1721978445045" class="icon" viewBox="0 0 1024 1024" version="1.1" xmlns="http://www.w3.org/2000/svg" p-id="39110" width="200" height="200" xmlns:xlink="http://www.w3.org/1999/xlink"><path d="M149.961913 874.037411a511.99954 511.99954 0 1 0 724.076694-724.076694 511.99954 511.99954 0 1 0-724.076694 724.076694Z" fill="#00C8C8" p-id="39111"></path><path d="M1024.10954 512c0-6.903994-0.178-13.765988-0.448-20.601981l-130.833882-130.833883-77.78793 46.007959L512.49 104.022367 405.514096 388.000111 198.080282 530.649983l175.201843 175.201843-90.175919 148.453866 165.811851 165.811851A517.227535 517.227535 0 0 0 512.11 1023.99954c282.769746 0 511.99954-229.229794 511.99954-511.99954z" fill="#00A0AA" p-id="39112"></path><path d="M397.666103 416.968085C356.57414 340.438154 370.488127 246.022239 431.910072 184.600294l80.579928-80.579927 80.579927 80.579927c61.421945 61.421945 75.335932 155.83786 34.245969 232.367791z" fill="#FFFFFF" p-id="39113" data-spm-anchor-id="a313x.search_index.0.i44.16f33a81WoObOg" class=""></path><path d="M593.069927 184.602294l-80.579927-80.579927-0.38 0.379999v312.567719h115.205896c41.091963-76.529931 27.175976-170.945846-34.245969-232.367791z" fill="#E9EDF5" p-id="39114" data-spm-anchor-id="a313x.search_index.0.i38.16f33a81WoObOg" class=""></path><path d="M385.908113 595.599925c-85.199923 16.919985-171.421846-23.989978-212.201809-100.68591l-53.499952-100.617909 100.61791-53.499952c76.695931-40.779963 171.053846-26.481976 232.227791 35.187968z" fill="#FFFFFF" p-id="39115" data-spm-anchor-id="a313x.search_index.0.i39.16f33a81WoObOg" class=""></path><path d="M553.295963 659.069868c-8.727992 86.423922-73.061934 156.917859-158.329858 173.491844l-111.863899 21.74398-21.743981-111.863899c-16.573985-85.267923 24.685978-171.323846 101.547909-211.79181z" fill="#FFFFFF" p-id="39116" data-spm-anchor-id="a313x.search_index.0.i24.16f33a81WoObOg" class=""></path><path d="M662.931864 517.551995c80.095928 33.61597 128.699884 115.747896 119.619893 202.135818l-11.911989 113.331899-113.333898-11.91199c-86.387922-9.079992-156.619859-73.697934-172.847845-159.031857z" fill="#FFFFFF" p-id="39117"></path><path d="M662.931864 517.551995l-141.983872 122.12389 1.675999 106.693904c22.75798 49.303956 73.861934 68.343939 134.683879 74.735933l113.333898 11.91199 11.911989-113.331899c9.077992-86.387922-39.525964-168.517849-119.621893-202.133818z" fill="#E9EDF5" p-id="39118"></path><path d="M559.653957 371.332126c55.56395-66.76794 148.317867-89.23592 228.275795-55.29395l104.897906 44.52596-44.52596 104.897906c-33.93997 79.957928-116.267896 128.229885-202.619818 118.797893z" fill="#E9EDF5" p-id="39119"></path><path d="M650.745875 309.836182L512.49 514.227998l-85.125924-90.553919z" fill="#fbbef7" p-id="39120" data-spm-anchor-id="a313x.search_index.0.i36.16f33a81WoObOg" class=""></path><path d="M650.745875 309.836182L512.11 380.486118v133.33788l0.38 0.404z" fill="#fbbef7" p-id="39121" data-spm-anchor-id="a313x.search_index.0.i31.16f33a81WoObOg" class=""></path><path d="M374.236124 327.430166l138.253876 186.797832-112.1559 58.179948z" fill="#fbbef7" p-id="39122" data-spm-anchor-id="a313x.search_index.0.i35.16f33a81WoObOg" class=""></path><path d="M293.452196 591.793928l229.013795-81.097927-4.699996 124.407888z" fill="#fbbef7" p-id="39123" data-spm-anchor-id="a313x.search_index.0.i27.16f33a81WoObOg" class=""></path><path d="M512.49 514.227998l10.133991 232.143791 112.627898-212.461809z" fill="#fbbef7" p-id="39124" data-spm-anchor-id="a313x.search_index.0.i26.16f33a81WoObOg" class=""></path><path d="M512.49 514.227998l224.957798 58.179948-159.285857-155.267861z" fill="#fbbef7" p-id="39125" data-spm-anchor-id="a313x.search_index.0.i28.16f33a81WoObOg" class=""></path><path d="M512.49 514.227998m-40.603964 0a40.603964 40.603964 0 1 0 81.207927 0 40.603964 40.603964 0 1 0-81.207927 0Z" fill="#08f9c9" p-id="39126" data-spm-anchor-id="a313x.search_index.0.i41.16f33a81WoObOg" class="selected"></path><path d="M512.49 473.624034c-0.128 0-0.252 0.018-0.38 0.02v81.167928c0.128 0 0.252 0.02 0.38 0.02 22.42398 0 40.603964-18.177984 40.603963-40.603964-0.002-22.42398-18.179984-40.603964-40.603963-40.603964z" fill="#0df9d9" p-id="39127" data-spm-anchor-id="a313x.search_index.0.i40.16f33a81WoObOg" class=""></path></svg>