<?xml version="1.0" standalone="no"?><!DOCTYPE svg PUBLIC "-//W3C//DTD SVG 1.1//EN" "http://www.w3.org/Graphics/SVG/1.1/DTD/svg11.dtd"><svg t="1721979191010" class="icon" viewBox="0 0 1062 1024" version="1.1" xmlns="http://www.w3.org/2000/svg" p-id="1533" data-spm-anchor-id="a313x.collections_detail.0.i9.344a3a81i9H4SZ" xmlns:xlink="http://www.w3.org/1999/xlink" width="207.421875" height="200"><path d="M708.719169 393.40363c-142.527361 2.733235-255.748369 115.555104-256.997848 257.015202-3.353636 141.585914 115.715627 251.514024 270.039284 260.399207 154.523226 10.33857 255.297168-94.695748 244.962936-249.483621-8.650906-154.662057-115.268765-272.382056-258.004372-267.930788z" fill="#05fecd" p-id="1534" data-spm-anchor-id="a313x.collections_detail.0.i0.344a3a81i9H4SZ" class=""></path><path d="M491.175352 109.511617c-153.403901-2.234311-261.045639 101.967021-253.266765 247.626756a294.365075 294.365075 0 0 0 14.633654 80.383141c5.427424 16.403749 22.49062 25.49284 38.26529 20.412494a29.210907 29.210907 0 0 0 16.703103-13.82236c70.01854 41.219787 138.982833 80.55668 208.363618 120.162557a29.948447 29.948447 0 0 0-3.301574 21.453726c3.106343 14.017591 15.601132 23.56656 29.471215 23.588252a30.000508 30.000508 0 0 0 6.581457-0.715847c55.467317-12.147711 105.303303-42.738251 141.008897-87.346383 36.22621-45.198163 56.864304-103.242531 58.881692-162.267392 6.594472-143.611978-103.975732-248.641958-257.340587-249.474944z" fill="#fd54bc" p-id="1535" data-spm-anchor-id="a313x.collections_detail.0.i1.344a3a81i9H4SZ" class=""></path><path d="M336.934126 402.679275c-142.523023-4.256037-249.483621 113.884793-258.763604 268.542512-10.963309 154.792211 89.762909 259.401359 244.858814 248.871897 154.896334-9.089091 274.312675-118.917417 270.802853-260.512007-1.401325-141.455759-114.578948-254.373074-256.898063-256.902402z" fill="#52d9fd" p-id="1536" data-spm-anchor-id="a313x.collections_detail.0.i5.344a3a81i9H4SZ" class=""></path></svg>